<?xml version="1.0" encoding="UTF-8"?>
<!-- Generator: visioncortex VTracer 0.6.12 -->
<svg version="1.1" xmlns="http://www.w3.org/2000/svg" width="512" height="512">
<path d="M0 0 C1.112 -0.003 2.225 -0.006 3.371 -0.009 C7.083 -0.018 10.795 -0.019 14.507 -0.021 C17.175 -0.025 19.844 -0.03 22.512 -0.036 C29.752 -0.049 36.992 -0.055 44.233 -0.06 C48.763 -0.063 53.293 -0.067 57.823 -0.071 C70.392 -0.083 82.96 -0.094 95.529 -0.097 C96.332 -0.097 97.135 -0.098 97.963 -0.098 C98.768 -0.098 99.573 -0.098 100.402 -0.098 C102.034 -0.099 103.665 -0.099 105.296 -0.1 C105.7 -0.1 105.7 -0.1 107.748 -0.1 C120.835 -0.104 133.922 -0.122 147.009 -0.145 C160.479 -0.169 173.949 -0.181 187.419 -0.182 C194.969 -0.183 202.518 -0.189 210.067 -0.207 C216.5 -0.223 222.933 -0.228 229.366 -0.22 C232.64 -0.216 235.913 -0.218 239.186 -0.231 C278.871 -0.374 318.432 7.339 347.65 36.14 C353.752 42.506 358.772 49.492 363.275 57.058 C364.65 59.14 364.65 59.14 366.65 60.14 C367.213 62.015 367.213 62.015 367.65 64.14 C368.33 66.181 369.079 68.201 369.885 70.195 C372.974 77.905 375.461 85.623 377.4 93.703 C377.598 94.516 377.797 95.328 378.001 96.165 C381.804 112.667 381.943 128.802 381.925 145.662 C381.929 148.33 381.934 150.998 381.94 153.665 C381.953 160.129 381.955 166.593 381.953 173.057 C381.951 178.319 381.953 183.582 381.957 188.844 C381.957 189.596 381.958 190.348 381.959 191.124 C381.96 192.653 381.961 194.182 381.962 195.711 C381.973 210.015 381.971 224.32 381.965 238.625 C381.96 251.665 381.971 264.706 381.99 277.747 C382.009 291.185 382.018 304.622 382.014 318.06 C382.012 325.585 382.014 333.11 382.029 340.635 C382.041 347.043 382.042 353.452 382.03 359.86 C382.024 363.12 382.024 366.379 382.035 369.638 C382.093 389.21 381.091 408.185 375.15 426.953 C374.855 427.936 374.56 428.919 374.256 429.931 C371.32 439.586 367.879 447.867 362.4 456.328 C361.922 457.071 361.444 457.814 360.951 458.58 C359.531 460.776 358.096 462.961 356.65 465.14 C356.198 465.826 355.747 466.511 355.281 467.217 C352.007 472.022 352.007 472.022 348.65 473.14 C348.376 473.714 348.101 474.288 347.818 474.879 C339.912 490.188 314.746 499.926 299.368 504.875 C278.255 511.285 257.503 512.585 235.545 512.529 C232.875 512.533 230.205 512.538 227.535 512.545 C221.084 512.558 214.634 512.555 208.184 512.546 C202.934 512.539 197.684 512.539 192.434 512.542 C191.682 512.542 190.93 512.543 190.155 512.543 C188.626 512.544 187.098 512.545 185.57 512.546 C171.294 512.555 157.018 512.545 142.742 512.529 C130.536 512.515 118.331 512.518 106.126 512.532 C91.895 512.548 77.664 512.554 63.434 512.545 C61.911 512.544 60.389 512.543 58.867 512.542 C58.118 512.541 57.37 512.541 56.598 512.54 C51.365 512.538 46.131 512.542 40.897 512.549 C34.505 512.558 28.112 512.555 21.719 512.539 C18.468 512.532 15.217 512.53 11.966 512.538 C-27.63 512.631 -67.215 504.93 -96.35 476.14 C-96.515 475.645 -96.515 475.645 -97.35 473.14 C-98.34 472.81 -99.33 472.48 -100.35 472.14 C-104.623 467.033 -108.121 461.455 -111.662 455.828 C-112.107 455.122 -112.552 454.416 -113.01 453.689 C-113.428 453.017 -113.845 452.345 -114.276 451.652 C-114.463 451.35 -114.463 451.35 -115.414 449.823 C-116.35 448.14 -116.35 448.14 -117.35 445.14 C-117.757 444.132 -118.164 443.124 -118.584 442.086 C-121.673 434.376 -124.161 426.658 -126.1 418.578 C-126.298 417.765 -126.496 416.953 -126.7 416.116 C-130.503 399.613 -130.643 383.478 -130.624 366.618 C-130.629 363.951 -130.634 361.283 -130.64 358.616 C-130.653 352.152 -130.655 345.688 -130.652 339.224 C-130.65 333.961 -130.652 328.699 -130.656 323.437 C-130.657 322.685 -130.658 321.932 -130.658 321.157 C-130.659 319.628 -130.661 318.099 -130.662 316.57 C-130.673 302.266 -130.671 287.961 -130.664 273.656 C-130.659 260.615 -130.671 247.575 -130.69 234.534 C-130.709 221.096 -130.717 207.659 -130.713 194.221 C-130.712 186.696 -130.714 179.171 -130.728 171.646 C-130.74 165.238 -130.741 158.829 -130.729 152.421 C-130.724 149.161 -130.724 145.902 -130.734 142.643 C-130.793 123.071 -129.79 104.096 -123.85 85.328 C-123.555 84.345 -123.259 83.362 -122.955 82.349 C-119.076 69.594 -119.076 69.594 -116.35 64.14 C-116.065 63.536 -115.78 62.931 -115.487 62.308 C-111.496 54.698 -105.747 47.796 -100.35 41.14 C-99.768 40.411 -99.187 39.681 -98.588 38.93 C-78.021 14.352 -44.783 3.711 -13.948 0.356 C-9.302 -0.03 -4.66 -0.004 0 0 Z " fill="#FDFDFD" transform="translate(130.3498077392578,-0.14044189453125)"/>
<path d="M0 0 C3.705 0.014 7.409 0.007 11.113 -0.021 C53.992 -0.336 93.391 5.19 125.252 36.576 C139.532 50.834 149.175 67.385 155.252 86.576 C155.576 87.586 155.899 88.595 156.233 89.635 C158.411 97.829 158.592 105.946 158.69 114.389 C158.712 115.546 158.734 116.703 158.757 117.896 C158.739 124.896 158.009 130.556 154.252 136.576 C149.736 140.956 144.812 140.734 138.837 140.753 C137.978 140.76 137.119 140.767 136.234 140.773 C133.39 140.793 130.546 140.805 127.701 140.815 C126.73 140.819 125.758 140.823 124.757 140.827 C119.615 140.848 114.473 140.862 109.331 140.872 C104.021 140.883 98.712 140.917 93.402 140.957 C89.318 140.983 85.233 140.991 81.149 140.995 C79.192 141 77.234 141.011 75.277 141.03 C72.536 141.054 69.797 141.053 67.056 141.046 C66.653 141.053 66.653 141.053 64.613 141.085 C59.366 141.037 56.432 140.019 52.252 136.576 C49.162 132.941 47.816 129.379 46.44 124.889 C42.701 113.131 36.243 104.667 25.44 98.826 C12.726 92.899 -2.67 92.611 -15.845 97.252 C-26.49 102.109 -34.733 111.581 -39.31 122.201 C-42.617 131.487 -43.046 140.903 -43.038 150.673 C-43.045 151.934 -43.052 153.196 -43.059 154.496 C-43.076 157.926 -43.081 161.356 -43.082 164.787 C-43.084 166.94 -43.088 169.093 -43.093 171.246 C-43.112 178.787 -43.12 186.328 -43.118 193.869 C-43.117 200.851 -43.138 207.832 -43.17 214.814 C-43.196 220.847 -43.207 226.879 -43.205 232.912 C-43.205 236.498 -43.21 240.083 -43.232 243.669 C-43.461 284.927 -43.461 284.927 -29.646 299.846 C-18.534 310.428 -7.427 312.218 7.342 311.979 C17.972 311.505 26.729 307.217 34.358 299.772 C40.78 292.329 45.257 282.973 47.127 273.326 C48.586 268.464 50.389 266.809 54.252 263.576 C58.104 262.293 61.745 262.421 65.759 262.415 C66.628 262.41 67.497 262.405 68.391 262.4 C71.268 262.386 74.145 262.379 77.022 262.373 C79.021 262.368 81.02 262.362 83.019 262.356 C87.213 262.346 91.407 262.34 95.601 262.336 C100.971 262.331 106.341 262.307 111.711 262.278 C115.842 262.26 119.973 262.254 124.103 262.253 C126.083 262.25 128.062 262.242 130.042 262.229 C132.814 262.212 135.585 262.213 138.357 262.22 C139.172 262.211 139.987 262.202 140.827 262.192 C145.706 262.228 149.017 262.897 153.252 265.576 C159.12 272.079 158.68 277.948 158.388 286.346 C156.267 321.078 134.533 353.119 109.252 375.576 C82.158 397.563 50.071 406.696 15.635 406.78 C14.84 406.782 14.044 406.785 13.224 406.788 C9.007 406.803 4.791 406.812 0.573 406.817 C-2.873 406.821 -6.319 406.835 -9.765 406.858 C-53.606 407.142 -88.212 400.8 -121.748 370.576 C-122.437 369.96 -123.127 369.344 -123.838 368.709 C-144.06 349.581 -157.318 320.912 -160.748 293.576 C-160.789 293.255 -160.789 293.255 -160.999 291.628 C-161.906 283.778 -161.903 275.944 -161.909 268.055 C-161.914 266.508 -161.919 264.961 -161.924 263.414 C-161.937 259.236 -161.944 255.058 -161.948 250.88 C-161.951 248.259 -161.955 245.639 -161.959 243.018 C-161.973 234.791 -161.983 226.564 -161.987 218.336 C-161.991 208.893 -162.009 199.45 -162.038 190.007 C-162.059 182.672 -162.069 175.337 -162.071 168.003 C-162.072 163.639 -162.077 159.275 -162.096 154.911 C-162.263 112.074 -162.263 112.074 -155.56 94.326 C-155.409 93.914 -155.409 93.914 -154.646 91.826 C-146.081 69.138 -130.595 47.84 -111.748 32.576 C-111.131 32.076 -110.514 31.576 -109.879 31.061 C-94.618 18.916 -76.827 9.087 -57.748 4.576 C-57.115 4.414 -56.483 4.252 -55.831 4.085 C-37.465 -0.495 -18.792 -0.072 0 0 Z " fill="#010304" transform="translate(259.747802734375,52.423583984375)"/>
<path d="M0 0 C0.531 -0.007 0.531 -0.007 3.22 -0.043 C3.8 -0.043 3.8 -0.043 6.737 -0.044 C7.963 -0.055 9.19 -0.067 10.453 -0.079 C13.815 -0.107 17.177 -0.121 20.539 -0.127 C22.641 -0.131 24.744 -0.14 26.847 -0.149 C34.189 -0.183 41.531 -0.2 48.874 -0.203 C55.707 -0.206 62.538 -0.246 69.371 -0.304 C75.245 -0.352 81.119 -0.373 86.994 -0.373 C90.499 -0.373 94.003 -0.385 97.508 -0.424 C101.422 -0.467 105.334 -0.453 109.248 -0.434 C110.401 -0.455 111.553 -0.475 112.741 -0.496 C118.465 -0.422 121.962 -0.008 126.37 3.818 C127.517 4.996 128.647 6.19 129.751 7.408 C130.609 8.161 131.466 8.913 132.349 9.689 C143.584 19.802 154.11 30.679 164.751 41.408 C164.421 42.398 164.091 43.388 163.751 44.408 C161.189 45.595 161.189 45.595 158.751 46.408 C149.107 37.449 139.603 28.383 130.375 18.994 C129.71 18.321 129.046 17.648 128.361 16.955 C127.783 16.365 127.205 15.776 126.61 15.169 C125.997 14.588 125.383 14.007 124.751 13.408 C124.127 12.727 123.502 12.046 122.859 11.344 C118.139 8.403 113.642 8.737 108.178 8.668 C107.007 8.639 105.835 8.609 104.628 8.579 C100.749 8.49 96.87 8.433 92.99 8.384 C91.646 8.366 90.303 8.347 88.96 8.327 C83.36 8.25 77.761 8.184 72.162 8.147 C64.182 8.093 56.208 7.979 48.231 7.775 C42.598 7.636 36.967 7.569 31.333 7.552 C27.978 7.54 24.635 7.49 21.281 7.382 C-0.669 6.721 -0.669 6.721 -8.946 13.544 C-12.944 17.332 -16.496 21.398 -19.821 25.786 C-20.292 26.321 -20.763 26.856 -21.249 27.408 C-21.909 27.408 -22.569 27.408 -23.249 27.408 C-23.249 28.068 -23.249 28.728 -23.249 29.408 C-24.682 30.818 -24.682 30.818 -26.686 32.47 C-42.227 45.815 -51.815 61.982 -55.249 82.408 C-55.349 84.712 -55.396 87.018 -55.409 89.324 C-55.414 90.008 -55.419 90.692 -55.425 91.396 C-55.44 93.681 -55.449 95.966 -55.457 98.251 C-55.467 99.893 -55.477 101.534 -55.487 103.175 C-55.518 108.563 -55.539 113.95 -55.557 119.338 C-55.56 120.256 -55.564 121.175 -55.567 122.121 C-55.598 130.796 -55.625 139.471 -55.642 148.146 C-55.663 159.212 -55.705 170.278 -55.775 181.344 C-55.822 189.14 -55.847 196.937 -55.854 204.733 C-55.859 209.381 -55.874 214.029 -55.914 218.677 C-55.951 223.058 -55.959 227.439 -55.946 231.821 C-55.946 233.417 -55.956 235.014 -55.977 236.611 C-56.204 254.359 -50.018 268.387 -38.174 281.748 C-35.719 284.261 -33.174 286.612 -30.51 288.902 C-25.46 293.256 -20.729 297.838 -16.061 302.595 C-14.695 303.987 -13.327 305.376 -11.956 306.763 C-11.659 307.066 -11.659 307.066 -10.158 308.596 C-9.528 309.194 -8.898 309.792 -8.249 310.408 C-7.926 310.745 -7.926 310.745 -6.291 312.448 C-1.88 315.289 2.186 315.288 7.345 315.576 C7.88 315.612 7.88 315.612 10.588 315.794 C23.948 316.638 37.325 317.124 50.706 317.424 C52.067 317.455 53.429 317.487 54.79 317.52 C115.352 319.002 115.352 319.002 134.937 301.388 C138.044 298.413 140.848 295.24 143.564 291.908 C144.002 291.37 144.44 290.832 144.892 290.278 C150.154 283.71 154.756 276.819 158.751 269.408 C161.373 270.457 162.545 271.057 164.001 273.533 C164.249 274.152 164.496 274.77 164.751 275.408 C160.344 279.84 155.933 284.269 151.519 288.695 C150.021 290.199 148.523 291.703 147.027 293.208 C144.865 295.382 142.699 297.554 140.533 299.724 C139.874 300.388 139.215 301.052 138.537 301.736 C134.639 305.635 130.629 309.342 126.447 312.934 C124.495 314.631 122.67 316.42 120.876 318.283 C116.979 322.326 116.979 322.326 113.622 322.55 C112.735 322.559 111.847 322.567 110.933 322.575 C109.915 322.587 108.898 322.598 107.849 322.61 C106.728 322.617 105.607 322.625 104.452 322.632 C103.863 322.638 103.863 322.638 100.884 322.667 C96.973 322.702 93.061 322.729 89.15 322.752 C88.484 322.756 87.818 322.76 87.132 322.764 C80.848 322.8 74.565 322.831 68.281 322.853 C60.251 322.88 52.222 322.931 44.193 323.013 C38.544 323.069 32.894 323.098 27.245 323.107 C23.873 323.113 20.502 323.131 17.13 323.179 C13.362 323.225 9.596 323.227 5.827 323.218 C4.718 323.242 3.609 323.266 2.467 323.29 C-4.348 323.217 -7.881 322.021 -12.692 317.111 C-13.205 316.549 -13.719 315.987 -14.249 315.408 C-15.031 314.73 -15.814 314.052 -16.62 313.353 C-23.118 307.628 -29.2 301.521 -35.272 295.348 C-38.106 292.479 -40.865 289.713 -44.022 287.197 C-50.526 281.971 -54.683 273.966 -58.624 266.72 C-58.79 266.418 -58.79 266.418 -59.635 264.887 C-64.693 255.284 -64.552 245.767 -64.555 235.164 C-64.563 233.516 -64.571 231.867 -64.58 230.219 C-64.602 225.755 -64.611 221.292 -64.616 216.829 C-64.62 214.032 -64.626 211.236 -64.633 208.44 C-64.658 198.662 -64.671 188.884 -64.674 179.106 C-64.678 170.03 -64.708 160.955 -64.75 151.879 C-64.784 144.058 -64.8 136.238 -64.8 128.418 C-64.801 123.76 -64.81 119.102 -64.838 114.444 C-64.865 110.053 -64.867 105.663 -64.851 101.273 C-64.849 99.675 -64.855 98.078 -64.872 96.481 C-65.018 80.962 -61.349 67.276 -54.249 53.408 C-53.837 52.559 -53.425 51.71 -53.001 50.835 C-49.37 43.707 -44.984 38.46 -39.272 32.908 C-38.424 32.065 -37.577 31.222 -36.703 30.353 C-34.022 27.693 -31.323 25.051 -28.624 22.408 C-26.805 20.606 -24.987 18.802 -23.17 16.998 C-19.849 13.71 -16.527 10.423 -13.188 7.154 C-12.522 6.501 -11.856 5.848 -11.17 5.175 C-7.4 1.707 -5.258 0.036 0 0 Z " fill="#5FF3EB" transform="translate(198.24859619140625,94.59213256835938)"/>
<path d="M0 0 C-0.33 0.66 -0.66 1.32 -1 2 C4.94 2 10.88 2 17 2 C17.33 1.01 17.66 0.02 18 -1 C49.02 -1 80.04 -1 112 -1 C112 -0.34 112 0.32 112 1 C114.97 1.33 117.94 1.66 121 2 C121 2.33 121 2.66 121 3 C120.678 2.998 120.678 2.998 119.05 2.985 C103.348 2.867 87.648 2.811 71.946 2.821 C64.352 2.825 56.759 2.808 49.166 2.743 C42.542 2.686 35.92 2.668 29.296 2.696 C25.793 2.709 22.292 2.704 18.789 2.652 C-5.362 2.313 -5.362 2.313 -11.862 7.656 C-14.141 9.936 -16.074 12.419 -18 15 C-19.332 16.309 -20.69 17.594 -22.081 18.841 C-25.315 21.934 -28.517 25.06 -31.71 28.196 C-33.069 29.523 -34.436 30.842 -35.811 32.153 C-45.377 41.283 -51.848 49.808 -57 62 C-57.654 63.34 -58.314 64.677 -59 66 C-60.461 63.159 -61.197 61.7 -60.312 58.562 C-60.096 58.14 -60.096 58.14 -59 56 C-58.526 55.01 -58.051 54.02 -57.562 53 C-54.72 47.543 -54.72 47.543 -53 45 C-52.34 45 -51.68 45 -51 45 C-50.745 44.258 -50.49 43.516 -50.227 42.752 C-48.93 39.843 -47.6 38.22 -45.364 35.976 C-44.62 35.222 -43.875 34.468 -43.108 33.691 C-42.303 32.892 -41.498 32.093 -40.668 31.27 C-39.839 30.438 -39.01 29.606 -38.157 28.749 C-36.404 26.995 -34.648 25.244 -32.888 23.497 C-30.197 20.822 -27.523 18.132 -24.85 15.439 C-23.144 13.736 -21.438 12.034 -19.73 10.332 C-19.331 9.929 -19.331 9.929 -17.309 7.892 C-16.555 7.148 -15.801 6.403 -15.024 5.636 C-14.366 4.98 -13.708 4.325 -13.03 3.649 C-9.307 0.624 -4.621 -1.54 0 0 Z " fill="#073132" transform="translate(199,92)"/>
<path d="M0 0 C3.415 0.076 6.83 0.082 10.246 0.096 C16.696 0.133 23.143 0.232 29.592 0.352 C36.942 0.487 44.291 0.553 51.641 0.613 C66.744 0.738 81.845 0.949 96.946 1.217 C95.946 3.217 95.946 3.217 92.696 4.404 C89.071 5.19 87.434 5.065 83.946 4.217 C83.245 4.402 82.543 4.588 81.821 4.779 C81.512 4.851 81.512 4.851 79.946 5.217 C78.956 4.557 77.966 3.897 76.946 3.217 C76.946 3.877 76.946 4.537 76.946 5.217 C71.035 5.99 65.815 6.365 59.946 5.217 C59.946 4.557 59.946 3.897 59.946 3.217 C58.487 3.358 57.029 3.505 55.571 3.654 C54.759 3.735 53.947 3.817 53.11 3.9 C50.946 4.217 50.946 4.217 48.946 5.217 C48.946 4.557 48.946 3.897 48.946 3.217 C46.821 3.357 44.696 3.504 42.571 3.654 C41.979 3.695 41.979 3.695 38.985 3.9 C35.946 4.217 35.946 4.217 33.946 5.217 C31.941 4.918 29.94 4.583 27.946 4.217 C26.956 4.217 25.966 4.217 24.946 4.217 C23.764 4.194 22.582 4.17 21.364 4.146 C19.954 4.128 18.544 4.11 17.133 4.092 C16.784 4.083 16.784 4.083 15.014 4.041 C11.576 4.009 8.892 4.235 5.622 5.35 C4.739 5.636 3.856 5.922 2.946 6.217 C1.956 5.557 0.966 4.897 -0.054 4.217 C-8.309 2.119 -18.337 1.578 -25.914 5.816 C-32.827 10.999 -38.522 17.401 -44.304 23.779 C-46.096 25.652 -47.892 27.52 -49.695 29.383 C-63.48 43.839 -63.48 43.839 -66.054 51.217 C-67.027 53.106 -68.025 54.982 -69.054 56.842 C-69.549 57.741 -70.044 58.641 -70.554 59.568 C-72.013 62.144 -73.519 64.686 -75.054 67.217 C-76.934 62.287 -74.576 58.397 -72.675 53.775 C-67.028 41.378 -58.783 30.72 -48.054 22.217 C-47.394 22.217 -46.734 22.217 -46.054 22.217 C-46.054 21.557 -46.054 20.897 -46.054 20.217 C-44.337 18.53 -42.47 17.074 -40.593 15.568 C-38.054 13.217 -38.054 13.217 -35.952 10.23 C-26.96 -2.163 -14.045 -0.364 0 0 Z M-66.054 51.217 C-65.724 51.877 -65.394 52.537 -65.054 53.217 C-65.714 52.887 -66.374 52.557 -67.054 52.217 C-66.724 51.887 -66.394 51.557 -66.054 51.217 Z " fill="#001C1F" transform="translate(221.05400562286377,101.7832727432251)"/>
<path d="M0 0 C1.647 0.308 3.292 0.621 4.938 0.938 C5.854 1.112 6.771 1.286 7.715 1.465 C10 2 10 2 11 3 C12.489 3.087 13.981 3.107 15.473 3.098 C15.922 3.096 15.922 3.096 18.197 3.088 C18.67 3.084 18.67 3.084 21.062 3.062 C22.012 3.058 22.961 3.053 23.939 3.049 C26.293 3.037 28.646 3.021 31 3 C31.33 2.34 31.66 1.68 32 1 C34.763 1.523 37.326 2.109 40 3 C42.186 3.095 44.375 3.13 46.562 3.125 C47.141 3.126 47.141 3.126 50.066 3.133 C53 3 53 3 55 2 C55 2.66 55 3.32 55 4 C55.557 3.987 56.114 3.975 56.688 3.962 C62.479 3.832 68.27 3.702 74.061 3.573 C76.223 3.524 78.386 3.476 80.548 3.427 C83.653 3.357 86.758 3.288 89.863 3.219 C90.832 3.197 91.801 3.175 92.799 3.152 C93.7 3.132 94.601 3.112 95.529 3.092 C96.321 3.074 97.114 3.056 97.931 3.038 C103.286 2.94 108.644 3 114 3 C114.413 2.907 114.413 2.907 116.5 2.438 C119 2 119 2 122 3 C122.99 3 123.98 3 125 3 C123.798 4.968 123.798 4.968 122 7 C119.82 7.506 119.82 7.506 117.238 7.515 C116.258 7.527 115.278 7.54 114.268 7.553 C113.732 7.55 113.732 7.55 111.014 7.533 C110.448 7.538 110.448 7.538 107.584 7.56 C103.831 7.582 100.078 7.575 96.324 7.566 C93.72 7.572 91.115 7.578 88.511 7.585 C83.046 7.597 77.581 7.591 72.115 7.576 C65.805 7.56 59.495 7.575 53.185 7.608 C47.109 7.638 41.034 7.64 34.958 7.63 C32.375 7.629 29.793 7.636 27.211 7.651 C23.598 7.668 19.987 7.654 16.374 7.631 C15.306 7.643 14.238 7.654 13.138 7.667 C5.048 7.563 5.048 7.563 1.289 4.461 C0.534 3.649 -0.222 2.837 -1 2 C-0.67 1.34 -0.34 0.68 0 0 Z " fill="#083334" transform="translate(190,403)"/>
<path d="M0 0 C41.25 0 82.5 0 125 0 C124.67 0.66 124.34 1.32 124 2 C122.35 2 120.7 2 119 2 C118.67 2.99 118.34 3.98 118 5 C104.726 5.023 91.452 5.041 78.178 5.052 C72.014 5.057 65.849 5.064 59.685 5.075 C53.733 5.086 47.781 5.092 41.829 5.095 C39.561 5.097 37.294 5.1 35.027 5.106 C31.843 5.113 28.66 5.114 25.477 5.114 C24.546 5.117 23.615 5.121 22.656 5.124 C17.027 5.116 11.585 4.716 6 4 C6 3.67 6 3.34 6 3 C5.01 2.835 5.01 2.835 0 2 C0 1.34 0 0.68 0 0 Z " fill="#062C2D" transform="translate(191,416)"/>
<path d="M0 0 C0 5.083 -2.414 8.583 -5.863 12.14 C-7.006 13.256 -8.156 14.364 -9.312 15.465 C-10.565 16.689 -11.818 17.914 -13.07 19.139 C-15.036 21.042 -17.004 22.942 -18.976 24.839 C-20.888 26.685 -22.788 28.543 -24.688 30.402 C-24.981 30.681 -24.981 30.681 -26.468 32.092 C-30.255 35.81 -32.172 39.015 -34 44 C-34.973 45.889 -35.971 47.766 -37 49.625 C-37.495 50.525 -37.99 51.425 -38.5 52.352 C-39.959 54.927 -41.465 57.469 -43 60 C-44.88 55.07 -42.522 51.181 -40.621 46.559 C-34.974 34.161 -26.729 23.503 -16 15 C-15.34 15 -14.68 15 -14 15 C-14 14.34 -14 13.68 -14 13 C-12.461 11.484 -12.461 11.484 -10.375 9.75 C-6.726 6.653 -3.341 3.425 0 0 Z M-34 44 C-33.67 44.66 -33.34 45.32 -33 46 C-33.66 45.67 -34.32 45.34 -35 45 C-34.67 44.67 -34.34 44.34 -34 44 Z " fill="#04292B" transform="translate(189,109)"/>
<path d="M0 0 C31.02 0 62.04 0 94 0 C93.67 0.99 93.34 1.98 93 3 C61.98 3 30.96 3 -1 3 C-0.67 2.01 -0.34 1.02 0 0 Z " fill="#001E20" transform="translate(217,91)"/>
<path d="M0 0 C0.99 0.33 1.98 0.66 3 1 C-1.498 6.392 -6.261 11.394 -11.242 16.34 C-12.011 17.107 -12.779 17.874 -13.571 18.664 C-16.003 21.091 -18.439 23.514 -20.875 25.938 C-22.534 27.592 -24.193 29.246 -25.852 30.9 C-29.898 34.936 -33.948 38.969 -38 43 C-38.165 42.505 -38.165 42.505 -39 40 C-38.34 39.01 -37.68 38.02 -37 37 C-36.34 37 -35.68 37 -35 37 C-34.67 36.01 -34.34 35.02 -34 34 C-32.38 32.288 -30.704 30.628 -29 29 C-28.474 28.453 -27.948 27.907 -27.406 27.344 C-25.976 25.858 -24.491 24.425 -23 23 C-22.34 23 -21.68 23 -21 23 C-20.773 22.443 -20.546 21.886 -20.312 21.312 C-18.614 18.32 -16.492 16.384 -14 14 C-13.328 13.308 -12.657 12.616 -11.965 11.902 C-11.255 11.171 -10.544 10.441 -9.812 9.688 C-9.475 9.339 -9.475 9.339 -7.77 7.574 C-6 6 -6 6 -4 6 C-3.856 5.691 -3.856 5.691 -3.125 4.125 C-2 2 -2 2 0 0 Z " fill="#052B2C" transform="translate(354,363)"/>
<path d="M0 0 C0.99 0.33 1.98 0.66 3 1 C2.835 2.258 2.67 3.516 2.5 4.812 C2.069 8.501 2.014 12.04 2.125 15.75 C2.178 19.984 1.872 22.668 -1 26 C-1.33 26 -1.66 26 -2 26 C-2 17.75 -2 9.5 -2 1 C-1.34 0.67 -0.68 0.34 0 0 Z " fill="#012425" transform="translate(144,176)"/>
<path d="M0 0 C0.99 0.33 1.98 0.66 3 1 C-1.698 6.661 -6.747 11.852 -12 17 C-12.66 16.67 -13.32 16.34 -14 16 C-12.559 12.638 -10.752 10.408 -8 8 C-7.34 8 -6.68 8 -6 8 C-5.732 7.361 -5.464 6.721 -5.188 6.062 C-4 4 -4 4 -1 3 C-0.67 2.01 -0.34 1.02 0 0 Z " fill="#072F30" transform="translate(165,118)"/>
<path d="M0 0 C0.99 0.33 1.98 0.66 3 1 C1.03 3.361 -0.974 5.688 -3 8 C-3.526 8.606 -4.052 9.212 -4.594 9.836 C-6.125 11.5 -6.125 11.5 -9 14 C-11.18 13.656 -11.18 13.656 -13 13 C-11.881 11.827 -10.755 10.662 -9.625 9.5 C-8.999 8.85 -8.372 8.201 -7.727 7.531 C-6 6 -6 6 -4 6 C-3.856 5.691 -3.856 5.691 -3.125 4.125 C-2 2 -2 2 0 0 Z " fill="#012123" transform="translate(354,363)"/>
<path d="M0 0 C0.66 0.66 1.32 1.32 2 2 C1.34 2 0.68 2 0 2 C-0.33 2.99 -0.66 3.98 -1 5 C-1.701 5.557 -2.402 6.114 -3.125 6.688 C-6.282 9.227 -8.738 12.017 -11.352 15.098 C-12.837 16.812 -14.375 18.419 -16 20 C-16.99 19.67 -17.98 19.34 -19 19 C-12.73 12.73 -6.46 6.46 0 0 Z " fill="#012324" transform="translate(360,372)"/>
<path d="M0 0 C0.33 0.66 0.66 1.32 1 2 C0.34 1.67 -0.32 1.34 -1 1 C-0.67 0.67 -0.34 0.34 0 0 Z M-8 8 C-7.34 9.32 -6.68 10.64 -6 12 C-7.706 14.784 -8.476 15.854 -11.688 16.75 C-12.451 16.833 -13.214 16.915 -14 17 C-13.34 15.68 -12.68 14.36 -12 13 C-11.34 13 -10.68 13 -10 13 C-9.34 11.35 -8.68 9.7 -8 8 Z " fill="#012022" transform="translate(158,124)"/>
<path d="M0 0 C0.33 0 0.66 0 1 0 C0.533 5.414 -0.243 9.205 -3 14 C-5 11 -5 11 -4.688 7.938 C-4 5 -4 5 -3 3 C-2.34 3 -1.68 3 -1 3 C-0.67 2.01 -0.34 1.02 0 0 Z M-4 9 C-3 11 -3 11 -3 11 Z " fill="#022224" transform="translate(135,168)"/>
<path d="M0 0 C0.33 0 0.66 0 1 0 C1.33 4.95 1.66 9.9 2 15 C2.66 14.67 3.32 14.34 4 14 C4 16.31 4 18.62 4 21 C3.34 21.33 2.68 21.66 2 22 C0.009 17.03 -0.248 12.877 -0.125 7.625 C-0.116 6.889 -0.107 6.153 -0.098 5.395 C-0.074 3.596 -0.038 1.798 0 0 Z " fill="#032C2D" transform="translate(142,330)"/>
<path d="M0 0 C-0.66 2.97 -1.32 5.94 -2 9 C-3.32 9 -4.64 9 -6 9 C-6.25 6.75 -6.25 6.75 -6 4 C-2.757 0 -2.757 0 0 0 Z " fill="#022325" transform="translate(139,159)"/>
<path d="M0 0 C7.483 6.15 7.483 6.15 10 10 C8.062 9.688 8.062 9.688 6 9 C5.67 8.01 5.34 7.02 5 6 C4.34 5.691 3.68 5.381 3 5.062 C2.34 4.712 1.68 4.361 1 4 C0.375 1.934 0.375 1.934 0 0 Z " fill="#0A3433" transform="translate(160,387)"/>
<path d="M0 0 C0.33 0.99 0.66 1.98 1 3 C-0.155 3.99 -0.155 3.99 -6 9 C-6 5.064 -4.571 3.874 -2 1 C-1.34 0.67 -0.68 0.34 0 0 Z " fill="#052C2D" transform="translate(175,109)"/>
<path d="M0 0 C2.169 0.506 4 1 6 2 C6 2.66 6 3.32 6 4 C6.66 4 7.32 4 8 4 C7.67 5.32 7.34 6.64 7 8 C5.83 6.857 4.664 5.711 3.5 4.562 C2.85 3.924 2.201 3.286 1.531 2.629 C0 1 0 1 0 0 Z " fill="#073032" transform="translate(342,115)"/>
<path d="M0 0 C0.99 0.33 1.98 0.66 3 1 C1.02 3.31 -0.96 5.62 -3 8 C-3.33 7.01 -3.66 6.02 -4 5 C-3.34 4.01 -2.68 3.02 -2 2 C-1.34 2 -0.68 2 0 2 C0 1.34 0 0.68 0 0 Z " fill="#083032" transform="translate(319,398)"/>
<path d="M0 0 C-0.33 0.66 -0.66 1.32 -1 2 C-3.314 2.731 -5.648 3.401 -8 4 C-8 3.01 -8 2.02 -8 1 C-3.375 -1.125 -3.375 -1.125 0 0 Z " fill="#001C1D" transform="translate(199,92)"/>
<path d="M0 0 C2.438 1.188 2.438 1.188 5 3 C5.812 5.688 5.812 5.688 6 8 C3.69 6.02 1.38 4.04 -1 2 C-0.67 1.34 -0.34 0.68 0 0 Z " fill="#0E3A3C" transform="translate(323,95)"/>
<path d="M0 0 C0.99 0.33 1.98 0.66 3 1 C1.667 3.667 0.333 6.333 -1 9 C-2.033 6.212 -2.045 5.132 -1.062 2.25 C-0.712 1.507 -0.361 0.765 0 0 Z " fill="#0B3D3D" transform="translate(147,160)"/>
<path d="M0 0 C2.97 0 5.94 0 9 0 C8.67 0.66 8.34 1.32 8 2 C4.938 2.625 4.938 2.625 2 3 C1.34 2.01 0.68 1.02 0 0 Z " fill="#00191B" transform="translate(221,105)"/>
<path d="M0 0 C1.65 0 3.3 0 5 0 C5 0.33 5 0.66 5 1 C3.35 1 1.7 1 0 1 C0 0.67 0 0.34 0 0 Z " fill="#FFFFFF" transform="translate(403,511)"/>
<path d="M0 0 C1.65 0 3.3 0 5 0 C5 0.33 5 0.66 5 1 C3.35 1 1.7 1 0 1 C0 0.67 0 0.34 0 0 Z " fill="#FFFFFF" transform="translate(104,511)"/>
<path d="M0 0 C1.65 0 3.3 0 5 0 C5 0.33 5 0.66 5 1 C3.35 1 1.7 1 0 1 C0 0.67 0 0.34 0 0 Z " fill="#FFFFFF" transform="translate(408,510)"/>
<path d="M0 0 C1.65 0 3.3 0 5 0 C5 0.33 5 0.66 5 1 C3.35 1 1.7 1 0 1 C0 0.67 0 0.34 0 0 Z " fill="#FFFFFF" transform="translate(99,510)"/>
<path d="M0 0 C0.33 0 0.66 0 1 0 C1 1.65 1 3.3 1 5 C0.67 5 0.34 5 0 5 C0 3.35 0 1.7 0 0 Z " fill="#FFFFFF" transform="translate(510,408)"/>
<path d="M0 0 C0.33 0 0.66 0 1 0 C1 1.65 1 3.3 1 5 C0.67 5 0.34 5 0 5 C0 3.35 0 1.7 0 0 Z " fill="#FFFFFF" transform="translate(1,408)"/>
<path d="M0 0 C1.65 0 3.3 0 5 0 C5 0.33 5 0.66 5 1 C3.35 1 1.7 1 0 1 C0 0.67 0 0.34 0 0 Z " fill="#FFFFFF" transform="translate(408,1)"/>
<path d="M0 0 C1.65 0 3.3 0 5 0 C5 0.33 5 0.66 5 1 C3.35 1 1.7 1 0 1 C0 0.67 0 0.34 0 0 Z " fill="#FFFFFF" transform="translate(99,1)"/>
<path d="M0 0 C4 1 4 1 4 1 Z " fill="#FFFFFF" transform="translate(418,508)"/>
<path d="M0 0 C4 1 4 1 4 1 Z " fill="#FFFFFF" transform="translate(90,508)"/>
<path d="M0 0 C1 4 1 4 1 4 Z " fill="#FFFFFF" transform="translate(511,403)"/>
<path d="M0 0 C1 4 1 4 1 4 Z " fill="#FFFFFF" transform="translate(0,403)"/>
<path d="M0 0 C1 4 1 4 1 4 Z " fill="#FFFFFF" transform="translate(511,105)"/>
<path d="M0 0 C1 4 1 4 1 4 Z " fill="#FFFFFF" transform="translate(0,105)"/>
<path d="M0 0 C1 4 1 4 1 4 Z " fill="#FFDFFF" transform="translate(1,100)"/>
<path d="M0 0 C1 4 1 4 1 4 Z " fill="#FFFFFF" transform="translate(510,100)"/>
<path d="M0 0 C4 1 4 1 4 1 Z " fill="#FFFFFF" transform="translate(418,3)"/>
<path d="M0 0 C4 1 4 1 4 1 Z " fill="#FFFFFF" transform="translate(90,3)"/>
<path d="M0 0 C4 1 4 1 4 1 Z " fill="#FFFFFF" transform="translate(403,0)"/>
<path d="M0 0 C4 1 4 1 4 1 Z " fill="#FFFFFF" transform="translate(105,0)"/>
<path d="M0 0 C3 1 3 1 3 1 Z " fill="#FFFFFF" transform="translate(414,509)"/>
<path d="M0 0 C3 1 3 1 3 1 Z " fill="#FFFFFF" transform="translate(95,509)"/>
<path d="M0 0 C3 1 3 1 3 1 Z " fill="#FFFFFF" transform="translate(422,507)"/>
<path d="M0 0 C3 1 3 1 3 1 Z " fill="#FFFFFF" transform="translate(426,506)"/>
<path d="M0 0 C3 1 3 1 3 1 Z " fill="#FFFFFF" transform="translate(83,506)"/>
<path d="" fill="#FFFFFF" transform="translate(0,0)"/>
<path d="" fill="#FFFFFF" transform="translate(0,0)"/>
<path d="" fill="#FFFFFF" transform="translate(0,0)"/>
<path d="" fill="#FFFFFF" transform="translate(0,0)"/>
<path d="M0 0 C3 1 3 1 3 1 Z " fill="#FFFFFF" transform="translate(426,5)"/>
<path d="M0 0 C3 1 3 1 3 1 Z " fill="#FFFFFF" transform="translate(83,5)"/>
<path d="M0 0 C3 1 3 1 3 1 Z " fill="#FFFFFF" transform="translate(422,4)"/>
<path d="M0 0 C3 1 3 1 3 1 Z " fill="#FFFFFF" transform="translate(87,4)"/>
<path d="M0 0 C3 1 3 1 3 1 Z " fill="#FFFFFF" transform="translate(414,2)"/>
<path d="M0 0 C3 1 3 1 3 1 Z " fill="#FFFFFF" transform="translate(95,2)"/>
<path d="M0 0 C2 1 2 1 2 1 Z " fill="#FFFFFF" transform="translate(88,507)"/>
<path d="M0 0 C2 1 2 1 2 1 Z " fill="#FFFFFF" transform="translate(429,505)"/>
<path d="M0 0 C2 1 2 1 2 1 Z " fill="#FFFFFF" transform="translate(81,505)"/>
<path d="M0 0 C2 1 2 1 2 1 Z " fill="#FFFFFF" transform="translate(432,504)"/>
<path d="M0 0 C2 1 2 1 2 1 Z " fill="#FFFFFF" transform="translate(78,504)"/>
<path d="M0 0 C2 1 2 1 2 1 Z " fill="#FFFFFF" transform="translate(435,503)"/>
<path d="M0 0 C2 1 2 1 2 1 Z " fill="#FFFFFF" transform="translate(75,503)"/>
<path d="M0 0 C2 1 2 1 2 1 Z " fill="#FFFFFF" transform="translate(438,502)"/>
<path d="M0 0 C2 1 2 1 2 1 Z " fill="#FFFFFF" transform="translate(72,502)"/>
<path d="M0 0 C2 1 2 1 2 1 Z " fill="#FFFFFF" transform="translate(440,501)"/>
<path d="M0 0 C2 1 2 1 2 1 Z " fill="#FFFFFF" transform="translate(70,501)"/>
<path d="M0 0 C2 1 2 1 2 1 Z " fill="#FFFFFF" transform="translate(445,499)"/>
<path d="M0 0 C2 1 2 1 2 1 Z " fill="#FFFFFF" transform="translate(65,499)"/>
<path d="M0 0 C2 1 2 1 2 1 Z " fill="#FFFFFF" transform="translate(449,497)"/>
<path d="M0 0 C2 1 2 1 2 1 Z " fill="#FFFFFF" transform="translate(61,497)"/>
<path d="M0 0 C2 1 2 1 2 1 Z " fill="#FFFFFF" transform="translate(454,494)"/>
<path d="M0 0 C2 1 2 1 2 1 Z " fill="#FFFFFF" transform="translate(56,494)"/>
<path d="" fill="#FFFFFF" transform="translate(0,0)"/>
<path d="" fill="#FFFFFF" transform="translate(0,0)"/>
<path d="" fill="#FFFFFF" transform="translate(0,0)"/>
<path d="" fill="#FFFFFF" transform="translate(0,0)"/>
<path d="" fill="#FFFFFF" transform="translate(0,0)"/>
<path d="" fill="#FFFFFF" transform="translate(0,0)"/>
<path d="" fill="#FFFFFF" transform="translate(0,0)"/>
<path d="" fill="#FFFFFF" transform="translate(0,0)"/>
<path d="" fill="#FFFFFF" transform="translate(0,0)"/>
<path d="" fill="#FFFFFF" transform="translate(0,0)"/>
<path d="" fill="#FFFFFF" transform="translate(0,0)"/>
<path d="" fill="#FFFFFF" transform="translate(0,0)"/>
<path d="" fill="#FFFFFF" transform="translate(0,0)"/>
<path d="" fill="#FFFFFF" transform="translate(0,0)"/>
<path d="" fill="#FFFFFF" transform="translate(0,0)"/>
<path d="" fill="#FFFFFF" transform="translate(0,0)"/>
<path d="" fill="#FFFFFF" transform="translate(0,0)"/>
<path d="" fill="#FFFFFF" transform="translate(0,0)"/>
<path d="" fill="#FFFFFF" transform="translate(0,0)"/>
<path d="" fill="#FFFFFF" transform="translate(0,0)"/>
<path d="" fill="#FFFFFF" transform="translate(0,0)"/>
<path d="" fill="#FFFFFF" transform="translate(0,0)"/>
<path d="" fill="#FFFFFF" transform="translate(0,0)"/>
<path d="" fill="#FFFFFF" transform="translate(0,0)"/>
<path d="" fill="#FFFFFF" transform="translate(0,0)"/>
<path d="" fill="#FFFFFF" transform="translate(0,0)"/>
<path d="" fill="#FFFFFF" transform="translate(0,0)"/>
<path d="" fill="#FFFFFF" transform="translate(0,0)"/>
<path d="" fill="#FFFFFF" transform="translate(0,0)"/>
<path d="" fill="#FFFFFF" transform="translate(0,0)"/>
<path d="" fill="#FFFFFF" transform="translate(0,0)"/>
<path d="M0 0 C2 1 2 1 2 1 Z " fill="#FFFFFF" transform="translate(454,17)"/>
<path d="M0 0 C2 1 2 1 2 1 Z " fill="#FFFFFF" transform="translate(56,17)"/>
<path d="M0 0 C2 1 2 1 2 1 Z " fill="#FFFFFF" transform="translate(449,14)"/>
<path d="M0 0 C2 1 2 1 2 1 Z " fill="#FFFFFF" transform="translate(61,14)"/>
<path d="M0 0 C2 1 2 1 2 1 Z " fill="#FFFFFF" transform="translate(445,12)"/>
<path d="M0 0 C2 1 2 1 2 1 Z " fill="#FFFFFF" transform="translate(65,12)"/>
<path d="M0 0 C2 1 2 1 2 1 Z " fill="#FFFFFF" transform="translate(440,10)"/>
<path d="M0 0 C2 1 2 1 2 1 Z " fill="#FFFFFF" transform="translate(70,10)"/>
<path d="M0 0 C2 1 2 1 2 1 Z " fill="#FFFFFF" transform="translate(438,9)"/>
<path d="M0 0 C2 1 2 1 2 1 Z " fill="#FFFFFF" transform="translate(72,9)"/>
<path d="M0 0 C2 1 2 1 2 1 Z " fill="#FFFFFF" transform="translate(435,8)"/>
<path d="M0 0 C2 1 2 1 2 1 Z " fill="#FFFFFF" transform="translate(75,8)"/>
<path d="M0 0 C2 1 2 1 2 1 Z " fill="#FFFFFF" transform="translate(432,7)"/>
<path d="M0 0 C2 1 2 1 2 1 Z " fill="#FFFFFF" transform="translate(78,7)"/>
<path d="M0 0 C2 1 2 1 2 1 Z " fill="#FFFFFF" transform="translate(429,6)"/>
<path d="M0 0 C2 1 2 1 2 1 Z " fill="#FFFFFF" transform="translate(81,6)"/>
<path d="" fill="#FFFFFF" transform="translate(0,0)"/>
<path d="" fill="#FFFFFF" transform="translate(0,0)"/>
<path d="" fill="#FFFFFF" transform="translate(0,0)"/>
<path d="" fill="#FFFFFF" transform="translate(0,0)"/>
<path d="" fill="#FFFFFF" transform="translate(0,0)"/>
<path d="" fill="#FFFFFF" transform="translate(0,0)"/>
<path d="" fill="#FFFFFF" transform="translate(0,0)"/>
<path d="" fill="#FFFFFF" transform="translate(0,0)"/>
<path d="" fill="#FFFFFF" transform="translate(0,0)"/>
<path d="" fill="#FFFFFF" transform="translate(0,0)"/>
<path d="" fill="#FFFFFF" transform="translate(0,0)"/>
<path d="" fill="#FFFFFF" transform="translate(0,0)"/>
<path d="" fill="#FFFFFF" transform="translate(0,0)"/>
<path d="" fill="#FFFFFF" transform="translate(0,0)"/>
<path d="" fill="#FFFFFF" transform="translate(0,0)"/>
<path d="" fill="#FFFFFF" transform="translate(0,0)"/>
<path d="" fill="#FFFFFF" transform="translate(0,0)"/>
<path d="" fill="#FFFFFF" transform="translate(0,0)"/>
<path d="" fill="#FFFFFF" transform="translate(0,0)"/>
<path d="" fill="#FFFFFF" transform="translate(0,0)"/>
<path d="" fill="#FFFFFF" transform="translate(0,0)"/>
<path d="" fill="#FFFFFF" transform="translate(0,0)"/>
<path d="" fill="#FFFFFF" transform="translate(0,0)"/>
<path d="" fill="#FFFFFF" transform="translate(0,0)"/>
<path d="" fill="#FFFFFF" transform="translate(0,0)"/>
<path d="" fill="#FFFFFF" transform="translate(0,0)"/>
<path d="" fill="#FFFFFF" transform="translate(0,0)"/>
<path d="" fill="#FFFFFF" transform="translate(0,0)"/>
<path d="" fill="#FFFFFF" transform="translate(0,0)"/>
<path d="" fill="#FFFFFF" transform="translate(0,0)"/>
<path d="" fill="#FFFFFF" transform="translate(0,0)"/>
<path d="" fill="#FFFFFF" transform="translate(0,0)"/>
<path d="" fill="#FFFFFF" transform="translate(0,0)"/>
<path d="" fill="#FFFFFF" transform="translate(0,0)"/>
<path d="" fill="#FFFFFF" transform="translate(0,0)"/>
<path d="" fill="#FFFFFF" transform="translate(0,0)"/>
<path d="" fill="#FFFFFF" transform="translate(0,0)"/>
<path d="" fill="#FFFFFF" transform="translate(0,0)"/>
<path d="" fill="#FFFFFF" transform="translate(0,0)"/>
<path d="" fill="#FFFFFF" transform="translate(0,0)"/>
<path d="" fill="#FFFFFF" transform="translate(0,0)"/>
<path d="" fill="#FFFFFF" transform="translate(0,0)"/>
<path d="" fill="#FFFFFF" transform="translate(0,0)"/>
<path d="" fill="#FFFFFF" transform="translate(0,0)"/>
<path d="" fill="#FFFFFF" transform="translate(0,0)"/>
<path d="" fill="#FFFFFF" transform="translate(0,0)"/>
<path d="" fill="#FFFFFF" transform="translate(0,0)"/>
<path d="" fill="#FFFFFF" transform="translate(0,0)"/>
<path d="" fill="#FFFFFF" transform="translate(0,0)"/>
<path d="" fill="#FFFFFF" transform="translate(0,0)"/>
<path d="" fill="#FFFFFF" transform="translate(0,0)"/>
<path d="" fill="#FFFFFF" transform="translate(0,0)"/>
<path d="" fill="#FFFFFF" transform="translate(0,0)"/>
<path d="" fill="#FFFFFF" transform="translate(0,0)"/>
<path d="" fill="#FFFFFF" transform="translate(0,0)"/>
<path d="" fill="#FFFFFF" transform="translate(0,0)"/>
<path d="" fill="#FFFFFF" transform="translate(0,0)"/>
<path d="" fill="#FFFFFF" transform="translate(0,0)"/>
<path d="" fill="#FFFFFF" transform="translate(0,0)"/>
<path d="" fill="#FFFFFF" transform="translate(0,0)"/>
<path d="" fill="#FFFFFF" transform="translate(0,0)"/>
<path d="" fill="#FFFFFF" transform="translate(0,0)"/>
<path d="" fill="#FFFFFF" transform="translate(0,0)"/>
<path d="" fill="#FFFFFF" transform="translate(0,0)"/>
<path d="" fill="#FFFFFF" transform="translate(0,0)"/>
<path d="" fill="#FFFFFF" transform="translate(0,0)"/>
<path d="" fill="#FFFFFF" transform="translate(0,0)"/>
<path d="" fill="#FFFFFF" transform="translate(0,0)"/>
<path d="" fill="#FFFFFF" transform="translate(0,0)"/>
<path d="" fill="#FFFFFF" transform="translate(0,0)"/>
<path d="" fill="#FFFFFF" transform="translate(0,0)"/>
<path d="" fill="#FFFFFF" transform="translate(0,0)"/>
<path d="" fill="#FFFFFF" transform="translate(0,0)"/>
<path d="" fill="#FFFFFF" transform="translate(0,0)"/>
<path d="" fill="#FFFFFF" transform="translate(0,0)"/>
<path d="" fill="#FFFFFF" transform="translate(0,0)"/>
<path d="" fill="#FFFFFF" transform="translate(0,0)"/>
<path d="" fill="#FFFFFF" transform="translate(0,0)"/>
<path d="" fill="#FFFFFF" transform="translate(0,0)"/>
<path d="" fill="#FFFFFF" transform="translate(0,0)"/>
<path d="" fill="#FFFFFF" transform="translate(0,0)"/>
<path d="" fill="#FFFFFF" transform="translate(0,0)"/>
<path d="" fill="#FFFFFF" transform="translate(0,0)"/>
<path d="" fill="#FFFFFF" transform="translate(0,0)"/>
<path d="" fill="#FFFFFF" transform="translate(0,0)"/>
<path d="" fill="#FFFFFF" transform="translate(0,0)"/>
<path d="" fill="#FFFFFF" transform="translate(0,0)"/>
<path d="" fill="#FFFFFF" transform="translate(0,0)"/>
<path d="" fill="#FFFFFF" transform="translate(0,0)"/>
<path d="" fill="#FFFFFF" transform="translate(0,0)"/>
<path d="" fill="#FFFFFF" transform="translate(0,0)"/>
<path d="" fill="#FFFFFF" transform="translate(0,0)"/>
<path d="" fill="#FFFFFF" transform="translate(0,0)"/>
<path d="" fill="#FFFFFF" transform="translate(0,0)"/>
<path d="" fill="#FFFFFF" transform="translate(0,0)"/>
<path d="" fill="#FFFFFF" transform="translate(0,0)"/>
<path d="" fill="#FFFFFF" transform="translate(0,0)"/>
<path d="" fill="#FFFFFF" transform="translate(0,0)"/>
<path d="" fill="#FFFFFF" transform="translate(0,0)"/>
<path d="" fill="#FFFFFF" transform="translate(0,0)"/>
<path d="" fill="#FFFFFF" transform="translate(0,0)"/>
<path d="" fill="#FFFFFF" transform="translate(0,0)"/>
<path d="" fill="#FFFFFF" transform="translate(0,0)"/>
<path d="" fill="#FFFFFF" transform="translate(0,0)"/>
<path d="" fill="#FFFFFF" transform="translate(0,0)"/>
<path d="" fill="#FFFFFF" transform="translate(0,0)"/>
<path d="" fill="#FFFFFF" transform="translate(0,0)"/>
<path d="" fill="#FFFFFF" transform="translate(0,0)"/>
<path d="" fill="#FFFFFF" transform="translate(0,0)"/>
<path d="" fill="#FFFFFF" transform="translate(0,0)"/>
<path d="" fill="#FFFFFF" transform="translate(0,0)"/>
<path d="" fill="#FFFFFF" transform="translate(0,0)"/>
<path d="" fill="#FFFFFF" transform="translate(0,0)"/>
<path d="" fill="#FFFFFF" transform="translate(0,0)"/>
<path d="" fill="#FFFFFF" transform="translate(0,0)"/>
<path d="" fill="#FFFFFF" transform="translate(0,0)"/>
<path d="" fill="#FFFFFF" transform="translate(0,0)"/>
<path d="" fill="#FFFFFF" transform="translate(0,0)"/>
<path d="" fill="#FFFFFF" transform="translate(0,0)"/>
<path d="" fill="#FFFFFF" transform="translate(0,0)"/>
<path d="" fill="#FFFFFF" transform="translate(0,0)"/>
<path d="" fill="#FFFFFF" transform="translate(0,0)"/>
<path d="" fill="#FFFFFF" transform="translate(0,0)"/>
<path d="" fill="#FFFFFF" transform="translate(0,0)"/>
<path d="" fill="#FFFFFF" transform="translate(0,0)"/>
<path d="" fill="#FFFFFF" transform="translate(0,0)"/>
<path d="" fill="#FFFFFF" transform="translate(0,0)"/>
<path d="" fill="#FFFFFF" transform="translate(0,0)"/>
<path d="" fill="#FFFFFF" transform="translate(0,0)"/>
<path d="" fill="#AAAAFF" transform="translate(0,0)"/>
<path d="" fill="#FFFFFF" transform="translate(0,0)"/>
<path d="" fill="#FFFFFF" transform="translate(0,0)"/>
<path d="" fill="#FFFFFF" transform="translate(0,0)"/>
<path d="" fill="#FFFFFF" transform="translate(0,0)"/>
<path d="" fill="#FFFFFF" transform="translate(0,0)"/>
<path d="" fill="#FFFFFF" transform="translate(0,0)"/>
<path d="" fill="#FFFFFF" transform="translate(0,0)"/>
<path d="" fill="#FFFFFF" transform="translate(0,0)"/>
<path d="" fill="#FFFFFF" transform="translate(0,0)"/>
<path d="" fill="#FFFFFF" transform="translate(0,0)"/>
<path d="" fill="#FFFFFF" transform="translate(0,0)"/>
<path d="" fill="#FFFFFF" transform="translate(0,0)"/>
<path d="" fill="#FFFFFF" transform="translate(0,0)"/>
<path d="" fill="#FFFFFF" transform="translate(0,0)"/>
<path d="" fill="#FFFFFF" transform="translate(0,0)"/>
<path d="" fill="#FFFFFF" transform="translate(0,0)"/>
<path d="" fill="#FFFFFF" transform="translate(0,0)"/>
<path d="" fill="#FFFFFF" transform="translate(0,0)"/>
<path d="" fill="#FFFFFF" transform="translate(0,0)"/>
<path d="" fill="#FFFFFF" transform="translate(0,0)"/>
<path d="" fill="#FFFFFF" transform="translate(0,0)"/>
<path d="" fill="#FFFFFF" transform="translate(0,0)"/>
<path d="" fill="#FFFFFF" transform="translate(0,0)"/>
<path d="" fill="#FFFFFF" transform="translate(0,0)"/>
</svg>
